<?xml version="1.0" encoding="UTF-8"?>
<!DOCTYPE svg PUBLIC "-//W3C//DTD SVG 1.1//EN" "http://www.w3.org/Graphics/SVG/1.1/DTD/svg11.dtd">
<svg xmlns="http://www.w3.org/2000/svg" version="1.1" width="597px" height="502px" style="shape-rendering:geometricPrecision; text-rendering:geometricPrecision; image-rendering:optimizeQuality; fill-rule:evenodd; clip-rule:evenodd" xmlns:xlink="http://www.w3.org/1999/xlink">
<g><path style="opacity:1" fill="#180600" d="M -0.5,-0.5 C 0.166667,-0.5 0.833333,-0.5 1.5,-0.5C 1.33334,48.8345 1.50001,98.1678 2,147.5C 8.87048,130.964 20.7038,119.464 37.5,113C 58.5273,104.528 79.5273,104.528 100.5,113C 122.654,124.574 144.321,136.908 165.5,150C 198.809,168.078 234.476,177.244 272.5,177.5C 316.64,177.639 358.973,169.139 399.5,152C 412.704,145.433 425.371,138.1 437.5,130C 444.355,128.965 451.022,129.632 457.5,132C 463.44,134.882 468.94,138.382 474,142.5C 503.945,122.242 534.445,121.409 565.5,140C 579.399,150.055 589.732,162.888 596.5,178.5C 596.5,199.5 596.5,220.5 596.5,241.5C 570.332,318.083 516.665,352.583 435.5,345C 420.296,359.182 403.463,371.016 385,380.5C 391.43,395.316 398.43,409.982 406,424.5C 413.729,425.982 421.229,428.482 428.5,432C 441.508,443.846 444.008,457.68 436,473.5C 430.82,480.342 423.986,484.508 415.5,486C 403.833,486.667 392.167,486.667 380.5,486C 374.523,484.563 371.523,480.73 371.5,474.5C 373.008,470.827 375.675,468.327 379.5,467C 392.262,466.962 404.928,466.295 417.5,465C 421.714,460.8 422.548,455.966 420,450.5C 418.786,448.951 417.286,447.785 415.5,447C 339.5,446.333 263.5,446.333 187.5,447C 181.458,450.748 179.958,455.915 183,462.5C 184.214,464.049 185.714,465.215 187.5,466C 239.5,466.333 291.5,466.667 343.5,467C 347.791,468.453 350.458,471.287 351.5,475.5C 351.125,480.751 348.459,484.251 343.5,486C 291.833,486.667 240.167,486.667 188.5,486C 166.94,480.727 158.774,467.227 164,445.5C 170.738,432.372 181.571,425.706 196.5,425.5C 202.639,411.888 209.306,398.555 216.5,385.5C 172.316,374.161 137.149,349.828 111,312.5C 106.333,305.167 101.667,297.833 97,290.5C 86.6503,268.469 76.317,246.469 66,224.5C 54.8299,203.331 39.9966,185.164 21.5,170C 15.238,167.623 9.73802,164.123 5,159.5C 3.56106,157.725 2.56106,155.725 2,153.5C 1.5,269.5 1.33333,385.5 1.5,501.5C 0.833333,501.5 0.166667,501.5 -0.5,501.5C -0.5,334.167 -0.5,166.833 -0.5,-0.5 Z"/></g>
<g><path style="opacity:1" fill="#d96a11" d="M 59.5,126.5 C 76.3912,124.578 92.0579,128.078 106.5,137C 131.31,153.407 157.31,167.74 184.5,180C 212.848,190.836 242.181,196.336 272.5,196.5C 315.485,196.336 357.152,188.836 397.5,174C 413.11,167.199 427.776,158.866 441.5,149C 443.833,148.333 446.167,148.333 448.5,149C 471.196,161.195 482.529,180.362 482.5,206.5C 481.077,249.3 465.91,286.3 437,317.5C 417.144,338.028 394.477,354.694 369,367.5C 320.571,366.669 272.071,366.169 223.5,366C 190.673,359.816 163.173,344.316 141,319.5C 130.835,307.667 121.835,295 114,281.5C 104.786,263.073 96.1197,244.407 88,225.5C 76.7144,202.078 61.8811,181.245 43.5,163C 36.6761,157.755 29.6761,152.755 22.5,148C 32.1575,136.173 44.4908,129.006 59.5,126.5 Z"/></g>
<g><path style="opacity:1" fill="#d96a11" d="M 511.5,146.5 C 541.615,143.801 563.449,155.801 577,182.5C 582.613,200.018 582.947,217.684 578,235.5C 560.589,292.906 521.923,323.572 462,327.5C 459.774,327.022 457.608,326.355 455.5,325.5C 460.863,319.271 465.863,312.771 470.5,306C 516.485,299.358 545.651,273.525 558,228.5C 565.633,207.179 561.133,189.012 544.5,174C 528.291,163.675 512.458,164.175 497,175.5C 496.667,175.167 496.333,174.833 496,174.5C 493.254,168.358 490.587,162.358 488,156.5C 495.412,151.869 503.245,148.536 511.5,146.5 Z"/></g>
<g><path style="opacity:1" fill="#d96a11" d="M 516.5,186.5 C 532.137,185.309 540.47,192.476 541.5,208C 539.496,238.696 525.496,262.029 499.5,278C 494.405,280.7 489.071,282.367 483.5,283C 496.051,256.626 502.217,228.792 502,199.5C 505.195,193.128 510.028,188.795 516.5,186.5 Z"/></g>
<g><path style="opacity:1" fill="#d96a11" d="M 237.5,386.5 C 280.505,386.167 323.505,386.5 366.5,387.5C 372.433,400.534 378.767,413.367 385.5,426C 329.497,426.833 273.497,426.667 217.5,425.5C 224.172,412.47 230.839,399.47 237.5,386.5 Z"/></g>
<g><path style="opacity:1" fill="#d96a11" d="M 371.5,474.5 C 365.248,473.376 358.915,473.21 352.5,474C 351.944,474.383 351.611,474.883 351.5,475.5C 350.458,471.287 347.791,468.453 343.5,467C 291.5,466.667 239.5,466.333 187.5,466C 185.714,465.215 184.214,464.049 183,462.5C 179.958,455.915 181.458,450.748 187.5,447C 263.5,446.333 339.5,446.333 415.5,447C 417.286,447.785 418.786,448.951 420,450.5C 422.548,455.966 421.714,460.8 417.5,465C 404.928,466.295 392.262,466.962 379.5,467C 375.675,468.327 373.008,470.827 371.5,474.5 Z"/></g>
</svg>
